# xmcd
#
# Track frame offsets: 
#        150
#        22383
#        40762
#        64128
#        87975
#        108375
#        128849
#        151726
#        173850
#        198230
#        224545
#
# Disc length: 3269 seconds
#
# Revision: 0
# Processed by: cddbd v1.5.2PL0 Copyright (c) Steve Scherf et al.
# Submitted via: ExactAudioCopy v0.99pb5
#
DISCID=980cc30b
DTITLE=Various Artist - Nguoi o lai Charlie
DYEAR=1900
DGENRE=Soundtrack
TTITLE0=Lau dai tinh ai
TTITLE1=Lk Chuyen hen ho_Hoa Trinh nu
TTITLE2=Han Mac Tu
TTITLE3=Lk Rung la thap_Tam su nguoi linh tre
TTITLE4=Nguoi o lai Charlie
TTITLE5=Nguoi yeu cua linh
TTITLE6=Anh khong chet dau anh
TTITLE7=Chuyen tinh mong thuong
TTITLE8=Tuyet trang
TTITLE9=Chiec ao Ba ba
TTITLE10=Anh khong chet dau anh
EXTD=
EXTT0=
EXTT1=
EXTT2=
EXTT3=
EXTT4=
EXTT5=
EXTT6=
EXTT7=
EXTT8=
EXTT9=
EXTT10=
PLAYORDER=
